<svg width="215" height="139" viewBox="0 0 215 139" fill="none" xmlns="http://www.w3.org/2000/svg">
<path d="M198.308 104.727C188.207 114.473 175.284 122.104 161.487 127.636C143.246 134.949 123.481 138.591 106.691 138.592C89.8397 138.592 73.8814 136.294 59.6906 131.825C23.9041 120.556 -0.650203 95.4923 0.0131179 58.7257C1.05874 0.667271 79.0753 -13.7646 110.441 12.8695C144.125 41.4708 157.975 13.7126 191.687 28.8591C217.657 40.5265 224.788 79.1774 198.308 104.727Z" fill="#F3F3EF"/>
<path d="M158.598 63.0478C158.598 63.0478 155.794 60.744 155.245 60.3289C154.695 59.9138 154.674 59.3404 154.959 59.162C154.959 59.162 153.165 57.717 152.904 55.7698C152.618 53.6843 153.817 53.8926 154.48 54.593C155.143 55.2934 155.701 56.8169 156.313 56.5901C156.925 56.3633 156.658 55.4831 156.18 55.2962C155.702 55.1094 156.075 54.3134 156.578 54.4403C157.082 54.5673 157.216 55.6614 157.216 56.2463C157.216 56.8311 157.644 58.1321 159.527 57.7341C161.41 57.3361 167.599 53.6187 167.599 53.6971C167.599 53.7756 169.326 54.5159 170.096 54.1993C170.866 53.8826 172.508 50.5902 172.508 50.5902L177.164 52.1308L172.009 63.045C172.009 63.045 161.97 65.3046 158.598 63.0478Z" fill="url(#paint0_linear_70_1297)"/>
<path d="M163.989 47.6646L170.237 50.3949C170.237 50.3949 167.853 56.8141 167.607 60.6257L162.514 57.9397C162.514 57.9397 162.514 51.1481 163.989 47.6646Z" fill="url(#paint1_linear_70_1297)"/>
<path d="M158.48 62.4803C158.899 61.2207 160.003 59.8641 163.028 59.3577C166.297 58.8099 170.279 60.399 168.58 62.3533L163.444 63.6685L158.48 62.4803Z" fill="url(#paint2_linear_70_1297)"/>
<path d="M168.05 62.9068H168.04C168.022 62.9055 168.003 62.9006 167.986 62.8922C167.97 62.8838 167.955 62.8722 167.942 62.858C167.93 62.8439 167.921 62.8274 167.915 62.8095C167.909 62.7917 167.906 62.7729 167.908 62.7542C167.936 62.3348 167.705 61.6472 167.125 61.0609C166.657 60.5887 165.816 60.0424 164.484 60.1194C162.119 60.2621 160.459 60.7171 158.976 62.6443C158.965 62.6604 158.951 62.6741 158.935 62.6846C158.918 62.6951 158.9 62.702 158.881 62.7051C158.862 62.7082 158.842 62.7073 158.823 62.7025C158.804 62.6977 158.787 62.6891 158.771 62.6772C158.756 62.6653 158.743 62.6503 158.733 62.6333C158.724 62.6162 158.718 62.5975 158.716 62.5781C158.714 62.5587 158.717 62.5391 158.723 62.5206C158.728 62.502 158.738 62.4849 158.751 62.4703C160.3 60.4561 162.021 59.9782 164.468 59.8341C165.909 59.7485 166.818 60.3448 167.321 60.8598C167.966 61.5102 168.22 62.2863 168.187 62.7741C168.185 62.8092 168.17 62.8422 168.144 62.8667C168.119 62.8912 168.086 62.9055 168.05 62.9068Z" fill="#D33332"/>
<path d="M159.301 63.0323C160.192 61.4132 161.591 60.5088 163.925 60.5088C166.259 60.5088 166.719 62.5587 166.719 62.5587L165.421 63.0337C165.421 63.0337 165.524 61.2977 163.905 61.1964C162.286 61.0951 160.461 61.8041 159.911 63.2035L159.301 63.0323Z" fill="url(#paint3_linear_70_1297)"/>
<path d="M150.936 48.5988L157.242 46.0739C157.242 46.0739 161.624 48.0054 162.52 53.1865C162.52 53.1865 160.621 59.5173 160.5 59.3946C160.378 59.2719 157.053 57.8554 157.053 57.8554C157.053 57.8554 157.102 55.5231 156.564 54.7827C156.558 54.7827 155.458 52.7357 150.936 48.5988Z" fill="url(#paint4_linear_70_1297)"/>
<path d="M196.446 56.2922C195.416 55.4819 194.72 57.4633 194.164 56.9398C193.607 56.4163 194.679 54.6574 194.164 53.5461C193.649 52.4349 192.79 53.9142 192.198 53.1482C191.64 52.4349 193.003 50.9785 192.626 47.5691C192.373 45.2682 190.068 40.9117 189.078 41.7347C188.088 42.5578 189.338 45.8873 188.841 47.726C188.489 49.0327 187.285 47.9899 187.057 47.388C186.68 46.3894 185.752 44.9215 185.167 46.154C184.582 47.3865 185.783 49.6375 185.88 49.5776C185.977 49.5177 189.018 51.2395 189.185 53.9484C189.352 56.6573 188.037 56.8799 184.926 57.0953L182.435 64.5872L187.76 66.7741L190.509 64.2064C195.091 63.5074 197.741 57.3092 196.446 56.2922ZM189.803 49.9143C189.687 48.9043 189.891 46.776 190.398 46.6533C191.242 46.4622 191.709 50.4421 191.043 50.9014C190.376 51.3608 189.917 50.9242 189.803 49.9143ZM192.468 61.8769C191.426 62.6016 190.716 62.4133 190.582 61.7157C191.152 60.5075 192.98 58.5874 193.81 59.3292C194.488 59.9326 193.51 61.1522 192.468 61.8769Z" fill="url(#paint5_linear_70_1297)"/>
<path d="M174.507 61.4947C174.596 61.4947 184.415 60.7159 184.505 60.6545C184.595 60.5932 189.334 57.0883 186.004 50.5991C182.675 44.11 182 42.2812 181.357 34.8691C181.291 34.1174 180.803 34.0047 180.541 34.193C180.541 34.193 180.986 31.6695 180.648 31.4256C180.31 31.1816 180.145 31.1317 179.715 32.1645C179.284 33.1973 177.987 36.4297 178.776 41.3312C179.565 46.2326 180.899 47.6078 180.899 47.6078L180.471 47.575C180.471 47.575 179.101 45.09 177.618 42.9802C176.134 40.8704 175.776 40.8233 175.541 40.8405C175.305 40.8576 175.193 41.3825 175.461 41.7434C175.729 42.1043 178.546 45.5137 179.679 48.3153C180.235 49.6919 180.843 51.9671 180.418 54.2738C180.016 56.4877 177.402 58.8828 174.507 61.4947Z" fill="url(#paint6_linear_70_1297)"/>
<path d="M184.212 49.1912C184.191 49.1913 184.17 49.1866 184.151 49.1774C184.132 49.1683 184.115 49.155 184.101 49.1384C181.469 45.8575 180.508 42.2912 180.164 39.8776C179.76 37.0503 180.067 34.8135 180.414 34.1288C180.431 34.0949 180.46 34.0692 180.496 34.0573C180.532 34.0454 180.572 34.0483 180.606 34.0653C180.639 34.0823 180.665 34.1121 180.677 34.1481C180.689 34.1841 180.686 34.2233 180.669 34.2572C179.937 35.7037 179.648 43.1157 184.325 48.9587C184.342 48.9796 184.353 49.005 184.356 49.0318C184.359 49.0586 184.355 49.0858 184.343 49.1101C184.331 49.1345 184.313 49.155 184.29 49.1694C184.267 49.1837 184.241 49.1913 184.214 49.1912H184.212Z" fill="#DD9127"/>
<path d="M182.743 48.7418C182.719 48.7418 182.695 48.7357 182.674 48.724C182.653 48.7122 182.635 48.6953 182.622 48.6747C177.191 39.946 179.78 33.7593 180.632 31.7265C180.648 31.6944 180.676 31.6696 180.71 31.6572C180.744 31.6448 180.781 31.6456 180.814 31.6595C180.847 31.6734 180.874 31.6994 180.889 31.7322C180.904 31.765 180.906 31.8022 180.894 31.8364C180.057 33.8335 177.511 39.9189 182.863 48.5264C182.876 48.548 182.884 48.5728 182.885 48.5983C182.885 48.6238 182.879 48.649 182.867 48.6713C182.854 48.6935 182.836 48.7121 182.814 48.725C182.792 48.7379 182.767 48.7447 182.742 48.7446L182.743 48.7418Z" fill="#DD9127"/>
<path d="M184.843 49.1911C184.82 49.1911 184.797 49.1855 184.777 49.1748C184.757 49.1641 184.739 49.1487 184.726 49.1298C184.689 49.077 183.799 47.7875 182.031 43.4495C180.596 39.9289 180.849 37.3056 181.016 35.5695C181.058 35.1287 181.094 34.7479 181.098 34.4198C181.098 34.3819 181.113 34.3456 181.14 34.3189C181.167 34.2921 181.203 34.2771 181.241 34.2771C181.279 34.2771 181.315 34.2921 181.342 34.3189C181.369 34.3456 181.384 34.3819 181.384 34.4198C181.384 34.7593 181.344 35.1458 181.301 35.5938C181.137 37.3056 180.889 39.8832 182.299 43.3382C184.051 47.6348 184.956 48.9486 184.964 48.9615C184.979 48.9829 184.988 49.0079 184.989 49.0339C184.991 49.0598 184.985 49.0858 184.973 49.1088C184.961 49.1319 184.943 49.1512 184.921 49.1647C184.899 49.1782 184.873 49.1854 184.847 49.1854L184.843 49.1911Z" fill="#DD9127"/>
<path d="M176.311 61.4976C176.282 61.4976 176.253 61.4887 176.23 61.472C176.206 61.4553 176.187 61.4317 176.177 61.4044C176.167 61.377 176.166 61.3472 176.173 61.319C176.18 61.2908 176.196 61.2655 176.218 61.2465C181.991 56.278 181.585 53.8287 180.971 50.1199C180.943 49.9487 180.914 49.7751 180.886 49.5992C180.88 49.5613 180.889 49.5227 180.911 49.4916C180.934 49.4606 180.968 49.4398 181.006 49.4337C181.044 49.4277 181.082 49.4369 181.113 49.4594C181.144 49.4818 181.165 49.5157 181.171 49.5535C181.2 49.7295 181.228 49.903 181.257 50.0742C181.863 53.7403 182.302 56.3907 176.407 61.4634C176.38 61.4861 176.346 61.4983 176.311 61.4976Z" fill="#DD9127"/>
<path d="M177.73 62.0195C177.703 62.0195 177.676 62.0117 177.654 61.997C177.631 61.9823 177.612 61.9613 177.601 61.9366C177.589 61.9118 177.585 61.8843 177.589 61.8573C177.593 61.8303 177.604 61.8049 177.622 61.7842C177.93 61.4204 178.228 61.0709 178.516 60.74C181.427 57.3634 183.183 55.3193 181.806 50.084C181.799 50.0484 181.806 50.0114 181.825 49.9806C181.844 49.9498 181.874 49.9275 181.909 49.9182C181.945 49.9089 181.982 49.9134 182.014 49.9307C182.046 49.948 182.07 49.9768 182.081 50.0113C183.496 55.3977 181.703 57.479 178.732 60.9254C178.447 61.2578 178.147 61.6044 177.839 61.9682C177.826 61.9841 177.809 61.9969 177.79 62.0058C177.772 62.0147 177.751 62.0194 177.73 62.0195Z" fill="#DD9127"/>
<path d="M179.663 61.6373C179.635 61.6372 179.607 61.6286 179.583 61.6124C179.56 61.5963 179.542 61.5735 179.531 61.5469C179.521 61.5203 179.518 61.4912 179.525 61.4633C179.531 61.4354 179.545 61.4101 179.566 61.3905C184.511 56.8086 183.642 53.4022 182.876 50.3951L182.797 50.0841C182.793 50.066 182.792 50.0471 182.795 50.0285C182.797 50.01 182.804 49.9921 182.813 49.9761C182.823 49.96 182.835 49.9459 182.85 49.9347C182.866 49.9235 182.883 49.9154 182.901 49.9108C182.919 49.9062 182.938 49.9053 182.956 49.908C182.975 49.9107 182.993 49.917 183.009 49.9266C183.025 49.9362 183.039 49.9489 183.05 49.9639C183.061 49.979 183.07 49.9961 183.074 50.0142L183.153 50.3238C183.899 53.2552 184.829 56.9028 179.76 61.5931C179.735 61.6198 179.7 61.6357 179.663 61.6373Z" fill="#DD9127"/>
<path d="M181.074 61.6373C181.044 61.6373 181.014 61.6275 180.989 61.6094C180.964 61.5912 180.946 61.5656 180.937 61.5363C180.928 61.5071 180.929 61.4757 180.939 61.4469C180.95 61.418 180.969 61.3933 180.994 61.3762C185.6 58.3007 185.114 54.6003 184.074 50.4307C184.067 50.3946 184.073 50.357 184.093 50.3258C184.113 50.2946 184.144 50.2722 184.18 50.2633C184.215 50.2545 184.253 50.2598 184.285 50.2783C184.317 50.2967 184.341 50.3268 184.351 50.3622C185.416 54.6417 185.913 58.4362 181.153 61.6144C181.129 61.6295 181.102 61.6375 181.074 61.6373Z" fill="#DD9127"/>
<path d="M182.743 61.8584C182.714 61.8585 182.685 61.8495 182.661 61.8326C182.637 61.8158 182.619 61.7919 182.609 61.7643C182.599 61.7367 182.597 61.7066 182.605 61.6783C182.613 61.6499 182.629 61.6247 182.652 61.6059C186.777 58.1424 186.075 54.666 185.455 51.5991L185.369 51.1711C185.362 51.1333 185.37 51.0941 185.391 51.0621C185.413 51.0301 185.446 51.008 185.484 51.0006C185.522 50.9933 185.561 51.0012 185.593 51.0227C185.625 51.0443 185.647 51.0776 185.655 51.1155L185.739 51.5434C186.374 54.6817 187.094 58.248 182.839 61.8256C182.812 61.8479 182.778 61.8595 182.743 61.8584Z" fill="#DD9127"/>
<path d="M161.41 64.3903C165.742 60.8839 171.823 60.5887 177.164 60.6814C182.505 60.7741 188.896 60.0623 189.077 54.7871C189.077 54.7871 191.419 60.7998 184.248 63.2448C177.077 65.6898 176.144 67.3274 176.144 67.3274L161.41 64.3903Z" fill="url(#paint7_linear_70_1297)"/>
<path d="M164.477 64.7284C164.447 64.7283 164.418 64.719 164.394 64.7016C164.37 64.6843 164.352 64.6599 164.342 64.6318C164.333 64.6037 164.332 64.5733 164.341 64.5448C164.349 64.5164 164.366 64.4913 164.39 64.4731C166.53 62.8298 169.032 61.2064 173.982 60.9839C178.889 60.7627 183.89 61.389 183.94 61.3961C183.959 61.3985 183.977 61.4045 183.993 61.4138C184.01 61.4231 184.024 61.4356 184.036 61.4505C184.047 61.4654 184.056 61.4824 184.061 61.5006C184.066 61.5189 184.067 61.5379 184.065 61.5566C184.063 61.5753 184.057 61.5934 184.047 61.6098C184.038 61.6262 184.025 61.6407 184.01 61.6522C183.996 61.6638 183.979 61.6724 183.96 61.6774C183.942 61.6824 183.923 61.6838 183.904 61.6814C183.854 61.6814 178.877 61.0509 173.996 61.272C169.114 61.4931 166.669 63.0865 164.565 64.6956C164.54 64.7163 164.509 64.7278 164.477 64.7284Z" fill="#DD9127"/>
<path d="M166.046 65.0608C166.018 65.061 165.991 65.053 165.968 65.0379C165.944 65.0228 165.926 65.0011 165.915 64.9756C165.903 64.9502 165.9 64.922 165.904 64.8945C165.909 64.8671 165.922 64.8415 165.941 64.8211C168.833 61.66 176.307 61.5502 181.829 62.4175C181.867 62.4234 181.901 62.444 181.923 62.4749C181.946 62.5058 181.955 62.5444 181.949 62.5823C181.944 62.6201 181.923 62.654 181.892 62.6766C181.861 62.6992 181.822 62.7086 181.785 62.7028C176.334 61.8469 168.969 61.9396 166.152 65.018C166.138 65.032 166.121 65.043 166.103 65.0504C166.085 65.0577 166.066 65.0613 166.046 65.0608Z" fill="#DD9127"/>
<path d="M167.918 66.349C167.89 66.349 167.864 66.3413 167.841 66.3268C167.818 66.3123 167.8 66.2915 167.788 66.2669C167.777 66.2424 167.772 66.215 167.776 66.1881C167.779 66.1612 167.79 66.1359 167.808 66.115C170.06 63.389 174.37 62.4846 179.962 63.5701C179.999 63.5773 180.033 63.5993 180.054 63.6311C180.076 63.6629 180.084 63.7021 180.077 63.7399C180.07 63.7777 180.048 63.8112 180.016 63.8328C179.984 63.8545 179.945 63.8626 179.907 63.8554C174.43 62.7913 170.207 63.66 168.027 66.3019C168.014 66.3172 167.997 66.3294 167.978 66.3375C167.959 66.3456 167.938 66.3495 167.918 66.349Z" fill="#DD9127"/>
<path d="M187.403 49.7616C183.004 47.4578 176.635 46.4422 171.99 44.9115C169.227 44.0029 168.23 42.6206 167.425 41.5921C167.156 41.2469 166.582 41.6663 166.654 42.3652C166.315 42.019 165.996 41.6542 165.698 41.2725C165.127 40.545 164.597 41.8118 165.53 42.8417C172.688 50.7473 181.158 49.92 184.662 51.6018C188.165 53.2836 188.762 55.2807 188.941 56.5774C189.121 57.8741 186.802 60.3619 184.421 61.098C182.04 61.8341 176.502 63.2706 174.749 66.5515C174.749 66.5515 183.575 65.9609 183.725 65.9481C183.849 65.9367 189.539 64.3604 191.359 61.0039C193.992 57.9198 191.662 51.9941 187.403 49.7616Z" fill="url(#paint8_linear_70_1297)"/>
<path d="M180.238 66.7069C180.2 66.712 180.162 66.7018 180.132 66.6787C180.101 66.6555 180.082 66.6213 180.076 66.5835C180.071 66.5456 180.081 66.5073 180.105 66.477C180.128 66.4466 180.162 66.4267 180.2 66.4216C180.27 66.4016 187.232 64.4387 189.525 60.3846C189.893 59.7521 190.129 59.0509 190.217 58.324C190.305 57.5972 190.243 56.86 190.035 56.1579C188.79 51.6972 184.578 50.7629 180.118 49.7743C178.255 49.3606 176.328 48.9341 174.545 48.2366C169.485 46.2594 167.284 43.9029 165.678 42.1825C165.428 41.9158 165.193 41.6618 164.965 41.4265C164.938 41.3994 164.924 41.3629 164.924 41.3251C164.924 41.2872 164.94 41.2511 164.967 41.2246C164.994 41.1981 165.03 41.1835 165.068 41.1839C165.106 41.1843 165.142 41.1997 165.169 41.2268C165.403 41.465 165.64 41.7189 165.891 41.9885C167.478 43.6889 169.654 46.0184 174.654 47.9727C176.417 48.6617 178.333 49.0868 180.186 49.4976C184.73 50.5047 189.03 51.4576 190.314 56.0837C190.531 56.822 190.596 57.5969 190.504 58.361C190.411 59.1252 190.164 59.8623 189.776 60.5273C187.425 64.6841 180.569 66.6184 180.278 66.6983C180.265 66.703 180.252 66.7059 180.238 66.7069Z" fill="#DD9127"/>
<path d="M177.164 67.3132C177.138 67.3133 177.112 67.3061 177.09 67.2923C177.067 67.2786 177.049 67.2588 177.037 67.2353C177.025 67.2118 177.02 67.1855 177.022 67.1592C177.024 67.1329 177.033 67.1077 177.049 67.0864C178.788 64.6842 182.089 63.2106 184.274 62.2363C184.933 61.9425 185.502 61.6886 185.917 61.4617C187.75 60.4632 189.432 58.5232 188.792 56.6273C188.78 56.5914 188.782 56.5521 188.799 56.5181C188.816 56.4842 188.846 56.4583 188.882 56.4462C188.917 56.4341 188.957 56.4367 188.991 56.4536C189.025 56.4705 189.051 56.5001 189.063 56.536C189.759 58.5988 188.053 60.623 186.054 61.7128C185.626 61.9453 185.056 62.2007 184.389 62.4974C182.233 63.4603 178.969 64.9139 177.28 67.2548C177.267 67.2729 177.249 67.2877 177.229 67.2979C177.209 67.308 177.187 67.3133 177.164 67.3132Z" fill="#DD9127"/>
<path d="M191.346 61.1493H191.319C191.282 61.1421 191.25 61.1204 191.229 61.0891C191.207 61.0578 191.2 61.0195 191.207 60.9824C191.793 57.9311 191.401 55.3848 190.041 53.422C187.474 49.6988 182.034 48.7487 178.786 48.1796C178.334 48.1011 177.906 48.0255 177.547 47.9542C174.316 47.3298 171.218 46.1482 168.393 44.4621C168.362 44.4424 168.339 44.4114 168.331 44.3757C168.322 44.3399 168.327 44.3022 168.346 44.2704C168.364 44.2385 168.394 44.215 168.429 44.2047C168.465 44.1945 168.503 44.1983 168.535 44.2153C171.334 45.885 174.402 47.055 177.602 47.6732C177.959 47.7445 178.364 47.8158 178.835 47.8986C182.127 48.4692 187.639 49.4377 190.275 53.2593C191.679 55.2935 192.087 57.9126 191.485 61.0423C191.477 61.073 191.459 61.1001 191.434 61.1195C191.409 61.1389 191.378 61.1494 191.346 61.1493Z" fill="#DD9127"/>
<path d="M172.863 55.9625C175.354 57.5317 178.728 56.021 179.552 52.7344C180.377 49.4477 180.108 45.5377 175.425 47.7887C170.388 50.2109 170.999 54.7828 172.863 55.9625Z" fill="url(#paint9_linear_70_1297)"/>
<path d="M175.425 54.5945C176.468 54.5945 177.314 53.7489 177.314 52.7058C177.314 51.6627 176.468 50.8171 175.425 50.8171C174.382 50.8171 173.536 51.6627 173.536 52.7058C173.536 53.7489 174.382 54.5945 175.425 54.5945Z" fill="url(#paint10_linear_70_1297)"/>
<path d="M176.652 60.0823C176.531 60.2378 176.394 60.4446 176.234 60.6657C174.838 60.6558 173.401 60.6829 171.967 60.7955C171.199 60.8555 170.432 60.9382 169.672 61.0552C167.986 59.8969 168.425 58.7428 169.049 58.389C169.725 58.0053 169.274 56.9911 169.431 56.3363C169.588 55.6816 170.4 55.1552 171.286 55.2978C172.31 55.4647 172.458 54.4105 173.542 54.2836C174.364 54.188 175.713 54.5931 175.95 55.8285C176.193 57.0895 177.136 56.5703 177.37 57.4276C177.604 58.2849 177.126 59.4718 176.652 60.0823Z" fill="url(#paint11_linear_70_1297)"/>
<path d="M171.967 61.0096C171.915 61.0106 171.864 60.9923 171.825 60.9582C170.715 60.0011 170.337 58.8955 170.789 57.9269C171.241 56.9583 172.417 56.4291 173.653 56.6288C173.936 56.68 174.202 56.801 174.426 56.9809C174.65 57.1608 174.826 57.3937 174.937 57.6587C175.075 57.9511 175.14 58.2726 175.127 58.5956C175.113 58.9187 175.021 59.2335 174.859 59.5132C174.691 59.7742 174.451 59.9807 174.168 60.1074C173.884 60.234 173.57 60.2754 173.264 60.2264C173.009 60.2005 172.768 60.0999 172.57 59.9373C172.372 59.7746 172.226 59.5571 172.151 59.3121C172.078 59.0802 172.072 58.8321 172.135 58.5971C172.198 58.3622 172.328 58.1503 172.508 57.9868C172.806 57.7187 173.21 57.6174 173.507 57.7358C173.652 57.7905 173.774 57.8948 173.851 58.0304C173.928 58.166 173.954 58.3243 173.926 58.4776C173.876 58.7629 173.622 59.0852 173.07 59.0952C173.014 59.0949 172.96 59.0727 172.919 59.0333C172.879 58.994 172.855 58.9405 172.853 58.8841C172.853 58.856 172.858 58.8281 172.868 58.802C172.879 58.7759 172.894 58.7521 172.914 58.732C172.933 58.7118 172.957 58.6957 172.983 58.6846C173.008 58.6735 173.036 58.6677 173.064 58.6673C173.35 58.6673 173.485 58.5246 173.507 58.402C173.517 58.3464 173.507 58.2892 173.478 58.2403C173.45 58.1915 173.406 58.1542 173.352 58.1352C173.252 58.1135 173.148 58.1178 173.05 58.1477C172.952 58.1777 172.863 58.2323 172.792 58.3064C172.672 58.4177 172.586 58.5612 172.545 58.7197C172.504 58.8783 172.51 59.0452 172.561 59.2008C172.613 59.3659 172.713 59.5117 172.848 59.6194C172.984 59.7272 173.149 59.792 173.321 59.8056C173.545 59.8417 173.775 59.8119 173.983 59.72C174.19 59.6281 174.367 59.478 174.491 59.2878C174.615 59.0669 174.685 58.8194 174.694 58.566C174.703 58.3126 174.652 58.0607 174.544 57.8314C174.461 57.6299 174.328 57.4524 174.159 57.3152C173.99 57.1779 173.789 57.0851 173.575 57.0453C172.527 56.8756 171.537 57.3107 171.167 58.1024C170.798 58.8941 171.14 59.8056 172.094 60.6287C172.128 60.6573 172.152 60.6956 172.163 60.7383C172.173 60.7809 172.171 60.826 172.155 60.8672C172.14 60.9084 172.112 60.9437 172.075 60.9685C172.039 60.9932 171.996 61.0061 171.952 61.0053L171.967 61.0096Z" fill="#ECB88B"/>
<path d="M160.333 87.5809L156.942 96.7989C156.942 96.7989 167.094 99.4322 166.819 94.5607C166.522 89.2927 160.333 87.5809 160.333 87.5809Z" fill="url(#paint12_linear_70_1297)"/>
<path d="M153.541 77.303C153.771 75.2817 156.416 71.4401 161.648 70.5514L177.768 76.1889C177.768 76.1889 170.47 82.116 163.481 80.34C156.493 78.5641 153.541 77.303 153.541 77.303Z" fill="#F9CBA2"/>
<path d="M156.958 76.741C156.958 76.741 158.869 75.3801 161.186 75.3601C163.503 75.3402 164.854 74.3616 164.854 74.3616L176.314 75.8808C176.314 75.8808 174.024 80.3928 168.326 80.6781C162.627 80.9634 156.958 76.741 156.958 76.741Z" fill="#E5AD83"/>
<path d="M190.503 64.2063C190.246 65.1057 189.94 65.9905 189.586 66.8568C189.284 67.6 188.943 68.3266 188.563 69.0336C185.438 74.8494 179.862 78.8023 171.318 77.9392C162.817 77.0833 157.713 71.0364 155.937 65.3661C155.72 64.6799 155.549 63.9798 155.427 63.2706C155.253 62.3004 155.192 61.3132 155.245 60.3289C162.07 64.5699 184.693 66.7912 190.503 64.2063Z" fill="url(#paint13_linear_70_1297)"/>
<path d="M183.023 77.4185C180.987 79.0675 176.401 80.1645 176.401 80.1645C171.604 83.3627 163.956 82.6452 162.772 82.7322C162.685 82.7322 162.629 82.7479 162.619 82.765C162.564 82.8349 162.093 84.1815 161.451 86.0673C160.836 87.8676 160.065 90.16 159.348 92.3026C158.48 94.8974 157.688 97.2725 157.351 98.2939L157.177 98.8174C155.71 97.8893 154.368 96.7777 153.183 95.5093C150.748 92.9103 148.364 88.9175 149.837 84.0389L149.894 83.9447C150.322 83.2315 153.048 78.6481 153.546 77.3086C154.085 75.855 160.876 74.8522 165.838 78.5554C166.123 78.7637 167.729 78.0091 168.822 76.8907C169.915 75.7723 170.856 73.6582 172.332 73.5085C174.044 73.3373 173.946 75.6154 171.006 78.815C171.006 78.815 173.77 78.3571 175.919 76.2473C178.606 73.6112 180.519 74.6382 179.395 76.7437C183.158 74.0277 185.349 75.5312 183.023 77.4185Z" fill="#F9CBA2"/>
<path d="M170.999 79.0234C170.957 79.0234 170.916 79.0112 170.882 78.9884C170.847 78.9656 170.819 78.9331 170.803 78.895C170.786 78.8568 170.781 78.8146 170.788 78.7736C170.795 78.7325 170.814 78.6944 170.842 78.6639C172.906 76.4172 173.485 74.721 173.143 74.0378C173.016 73.7838 172.748 73.6754 172.347 73.7154C171.421 73.8095 170.686 74.8109 169.976 75.7781C169.669 76.219 169.332 76.6384 168.968 77.0334C167.969 78.0533 166.174 79.0733 165.702 78.7195C162.541 76.3601 158.966 76.1775 157.571 76.2075C157.543 76.2086 157.515 76.204 157.488 76.194C157.462 76.184 157.438 76.1687 157.417 76.1492C157.397 76.1296 157.381 76.1061 157.37 76.08C157.359 76.054 157.353 76.026 157.353 75.9978C157.352 75.9697 157.357 75.9417 157.368 75.9155C157.378 75.8894 157.393 75.8655 157.413 75.8452C157.432 75.8249 157.455 75.8087 157.481 75.7974C157.507 75.7861 157.535 75.7801 157.563 75.7795C158.989 75.7467 162.678 75.9379 165.943 78.3686C166.217 78.4285 167.624 77.798 168.654 76.7338C169.003 76.3528 169.327 75.9487 169.622 75.5242C170.388 74.48 171.18 73.4015 172.296 73.2888C172.875 73.2304 173.308 73.4315 173.517 73.8452C173.982 74.7738 173.251 76.5042 171.601 78.4414C172.531 78.176 174.297 77.5184 175.753 76.0905C177.548 74.3302 178.892 74.236 179.495 74.6854C180.034 75.0891 180.066 75.915 179.568 76.8408C179.541 76.891 179.496 76.9284 179.441 76.945C179.387 76.9616 179.328 76.9559 179.278 76.9293C179.228 76.9026 179.191 76.8571 179.174 76.8028C179.157 76.7485 179.163 76.6898 179.19 76.6397C179.578 75.9136 179.595 75.2974 179.238 75.0292C178.749 74.6626 177.544 74.935 176.053 76.3972C173.882 78.5269 171.142 79.0005 171.025 79.0205L170.999 79.0234Z" fill="#C98348"/>
<path d="M162.772 82.7308C162.685 82.7308 162.63 82.7465 162.62 82.7636C162.564 82.8335 162.093 84.1802 161.451 86.066C157.511 84.6481 157.576 81.0376 157.576 81.0376C159.042 82.2515 162.621 82.7109 162.772 82.7308Z" fill="#E5AD83"/>
<path d="M159.349 92.3012C158.48 94.896 157.688 97.2711 157.351 98.2925L153.182 95.5079C150.747 92.9089 148.363 88.9161 149.835 84.0375L149.892 83.9433C150.76 86.2999 153.498 92.1599 159.349 92.3012Z" fill="#E5AD83"/>
<path d="M10.5321 52.8029C10.6142 52.9001 10.7151 52.9799 10.8288 53.0373C10.9424 53.0947 11.0664 53.1286 11.1935 53.137C11.3205 53.1454 11.4479 53.1281 11.5681 53.0861C11.6883 53.0441 11.7988 52.9784 11.893 52.8927L42.0591 25.4141C42.1239 25.3551 42.1634 25.2732 42.1693 25.1858C42.1751 25.0983 42.1469 25.0119 42.0905 24.9448C42.0617 24.9104 42.0263 24.8821 41.9865 24.8615C41.9467 24.8408 41.9032 24.8283 41.8585 24.8246C41.8138 24.8209 41.7688 24.8261 41.7261 24.8398C41.6834 24.8536 41.6439 24.8757 41.6098 24.9049L10.6405 51.4734C10.4508 51.6359 10.3329 51.8668 10.3126 52.1158C10.2923 52.3648 10.3712 52.6118 10.5321 52.8029Z" fill="url(#paint14_linear_70_1297)"/>
<path d="M13.1569 55.0968C13.2365 55.1964 13.3353 55.2789 13.4475 55.3394C13.5597 55.3999 13.683 55.4371 13.8099 55.4489C13.9369 55.4606 14.0649 55.4466 14.1862 55.4076C14.3076 55.3687 14.4199 55.3057 14.5164 55.2223L45.39 28.5468C45.4563 28.4896 45.498 28.4089 45.5062 28.3218C45.5144 28.2346 45.4887 28.1476 45.4343 28.0789C45.4064 28.0436 45.3717 28.0142 45.3324 27.9924C45.293 27.9706 45.2497 27.9569 45.2049 27.9519C45.1602 27.947 45.115 27.9511 45.0718 27.9638C45.0286 27.9765 44.9884 27.9977 44.9535 28.0261L13.2996 53.7744C13.1068 53.9319 12.9838 54.1589 12.9571 54.4064C12.9304 54.6538 13.0022 54.9018 13.1569 55.0968Z" fill="url(#paint15_linear_70_1297)"/>
<path d="M21.5504 75.604C23.3891 73.2118 28.2777 69.985 34.0779 67.1877L39.2518 67.1777C39.2518 67.1777 41.4115 71.4244 34.6328 76.1504C27.8541 80.8763 18.0783 79.5939 21.5504 75.604Z" fill="url(#paint16_linear_70_1297)"/>
<path d="M37.4288 73.6896C34.7683 76.3729 30.7371 78.146 30.7371 78.146L30.5944 77.5882C30.3391 76.5897 29.767 74.3658 29.1237 71.9022C27.9682 67.4801 26.5788 62.2976 26.352 62.0294C22.5704 57.5617 17.6418 55.4676 16.9899 54.4148C16.726 53.9869 16.2353 45.8316 16.2767 45.455C16.3622 44.5106 18.5933 40.9915 19.452 39.8075C20.3108 38.6235 21.957 39.7904 21.7002 40.6249C21.4434 41.4594 20.4278 43.9586 20.3964 44.037C22.1167 42.4679 24.6973 40.7047 25.6188 40.6277C26.6501 40.5421 26.847 42.2254 26.0638 42.9928C25.4276 43.6176 22.7915 46.1311 22.7458 46.435C22.7002 46.7388 22.2751 51.4092 22.2751 51.4092C23.1952 48.8087 25.2579 45.7745 25.857 45.0741C26.3306 44.5206 28.2949 43.2068 29.6857 42.7646C31.2349 42.2725 31.854 43.6091 31.2834 44.1668C31.2834 44.1668 32.3076 44.2795 32.2534 45.1896C32.1992 46.0998 30.8826 47.5533 30.6329 47.9813C30.3833 48.4092 29.5402 51.7772 29.5402 51.7772C34.8967 55.1195 35.4445 56.1837 36.0893 57.6258C36.7341 59.068 36.5315 62.2976 36.5315 62.2976C36.5315 62.2976 38.5471 65.7654 39.1077 66.8624C39.1678 66.9624 39.2157 67.0692 39.2504 67.1805C40.4215 69.5956 39.2433 71.8566 37.4288 73.6896Z" fill="#F9CBA2"/>
<path d="M22.275 51.616C22.2598 51.6176 22.2445 51.6176 22.2294 51.616C22.1785 51.6048 22.1336 51.5754 22.1028 51.5334C22.0721 51.4914 22.0578 51.4396 22.0625 51.3878C22.0796 51.1966 22.4804 46.7174 22.5275 46.4079C22.5603 46.1868 23.0296 45.6362 25.506 43.2354L25.9069 42.8459C26.1044 42.6304 26.2378 42.3639 26.292 42.0765C26.3462 41.7892 26.319 41.4924 26.2136 41.2197C26.1708 41.102 26.0905 41.0017 25.9851 40.9342C25.8796 40.8666 25.7549 40.8356 25.6301 40.846C24.8299 40.913 22.3492 42.5435 20.5347 44.1997C20.4919 44.2318 20.4387 44.2467 20.3855 44.2415C20.3323 44.2364 20.283 44.2115 20.2472 44.1718C20.2115 44.1321 20.1918 44.0804 20.1922 44.027C20.1926 43.9735 20.213 43.9222 20.2494 43.883C21.974 42.3138 24.5945 40.5022 25.5987 40.418C25.8115 40.3984 26.025 40.4484 26.2069 40.5606C26.3888 40.6727 26.5293 40.841 26.6073 41.04C26.7503 41.3921 26.7888 41.7779 26.7182 42.1513C26.6477 42.5248 26.471 42.8699 26.2093 43.1455L25.807 43.5378C25.0667 44.251 23.1109 46.1511 22.954 46.4821C22.9212 46.7303 22.76 48.4792 22.6216 50.007C23.6416 47.783 25.1522 45.5691 25.7 44.9286C26.2107 44.3323 28.2149 43.0028 29.6257 42.5535C30.6243 42.2368 31.2733 42.612 31.5472 43.0685C31.6357 43.2092 31.6898 43.3688 31.7051 43.5344C31.7205 43.6999 31.6967 43.8667 31.6357 44.0214C32.0451 44.164 32.513 44.5092 32.4716 45.1939C32.4274 45.9372 31.6699 46.9386 31.1678 47.6019C31.0123 47.8073 30.8825 47.9842 30.8226 48.0812C30.809 48.1065 30.7905 48.1289 30.7681 48.1469C30.7457 48.1649 30.7199 48.1782 30.6922 48.1861C30.6645 48.1939 30.6356 48.1961 30.607 48.1924C30.5785 48.1888 30.551 48.1795 30.5262 48.165C30.5013 48.1505 30.4797 48.1312 30.4625 48.1082C30.4453 48.0851 30.4329 48.0589 30.4261 48.0309C30.4193 48.003 30.4181 47.974 30.4228 47.9456C30.4274 47.9172 30.4377 47.8901 30.4531 47.8658C30.523 47.7459 30.6571 47.5676 30.8269 47.3437C31.2691 46.7602 32.008 45.7831 32.0437 45.1697C32.085 44.4707 31.2976 44.3766 31.2634 44.3723C31.2232 44.3677 31.1852 44.3518 31.1538 44.3265C31.1223 44.3012 31.0986 44.2675 31.0855 44.2293C31.0723 44.1911 31.0703 44.1499 31.0795 44.1106C31.0888 44.0713 31.109 44.0354 31.1378 44.0071C31.223 43.9097 31.2733 43.7867 31.2808 43.6576C31.2883 43.5284 31.2526 43.4004 31.1792 43.2939C30.9895 42.9772 30.5145 42.7233 29.7527 42.9672C28.4275 43.3951 26.4903 44.6647 26.0224 45.2125C25.4005 45.94 23.3677 48.9685 22.479 51.4805C22.4629 51.5213 22.4348 51.5561 22.3983 51.5804C22.3618 51.6046 22.3188 51.617 22.275 51.616Z" fill="#C98348"/>
<path d="M16.9942 54.6316C16.9568 54.6315 16.92 54.6218 16.8873 54.6036C16.8546 54.5854 16.8271 54.5592 16.8073 54.5274C16.7517 54.439 16.6062 54.2036 16.3038 49.9313C16.1611 47.8814 16.0356 45.6518 16.0555 45.435C16.0607 45.3782 16.0881 45.3258 16.1318 45.2893C16.1756 45.2528 16.232 45.2351 16.2888 45.2402C16.3455 45.2453 16.3979 45.2728 16.4344 45.3165C16.471 45.3603 16.4886 45.4167 16.4835 45.4735C16.4493 45.9014 16.9414 53.7914 17.1768 54.3092C17.2047 54.3566 17.2128 54.4131 17.1995 54.4664C17.1862 54.5198 17.1524 54.5658 17.1054 54.5945C17.0727 54.6173 17.0341 54.6302 16.9942 54.6316Z" fill="#C98348"/>
<path d="M37.4288 73.6896L30.5944 77.5882C30.3391 76.5897 29.767 74.3658 29.1237 71.9022C32.2135 71.547 36.436 70.1905 39.1092 66.8554C39.1693 66.9553 39.2172 67.0621 39.2519 67.1735C40.4216 69.5957 39.2433 71.8566 37.4288 73.6896Z" fill="#E5AD83"/>
<path d="M91.1933 67.5629L115.103 67.8824C115.103 67.8824 124.067 88.0916 124.15 102.515C124.232 116.938 123.74 131.607 123.74 131.607L99.156 132.178C99.156 132.178 94.3773 86.6166 91.1933 67.5629Z" fill="url(#paint17_linear_70_1297)"/>
<path d="M115.047 46.5419L114.822 46.114C114.786 46.0472 114.725 45.9973 114.653 45.9754C114.58 45.9535 114.502 45.9612 114.435 45.997C114.368 46.0327 114.319 46.0936 114.297 46.166C114.275 46.2385 114.283 46.3168 114.318 46.3836L114.544 46.8115C118.12 53.4947 120.944 58.7741 119.352 62.5772C118.412 64.8268 115.897 66.5271 111.668 67.7767C111.632 67.7873 111.598 67.8049 111.569 67.8284C111.54 67.852 111.516 67.881 111.498 67.914C111.48 67.9469 111.469 67.983 111.465 68.0203C111.461 68.0576 111.464 68.0953 111.475 68.1312C111.485 68.1672 111.503 68.2007 111.526 68.2299C111.55 68.2591 111.579 68.2834 111.612 68.3013C111.645 68.3192 111.681 68.3305 111.718 68.3345C111.755 68.3385 111.793 68.3351 111.829 68.3245C116.234 67.0236 118.867 65.2162 119.877 62.7983C121.575 58.7442 118.693 53.3591 115.047 46.5419Z" fill="url(#paint18_linear_70_1297)"/>
<path d="M112.671 27.2942C112.671 27.2942 114.076 29.0645 114.753 32.1871L116.159 32.0045C116.159 32.0045 115.455 26.1231 109.002 21.4642C102.548 16.8052 90.1991 19.7324 86.7242 28.6737C85.1836 32.6393 85.1051 36.5936 84.4418 40.2611C81.4233 47.308 74.7331 49.8771 68.8644 51.3051C68.1127 51.4876 67.3823 51.6588 66.6762 51.8243C60.4453 53.285 55.9375 54.3392 52.1117 59.6829C52.0888 59.7132 52.0722 59.7479 52.0629 59.7848C52.0537 59.8216 52.0518 59.86 52.0576 59.8976C52.0633 59.9352 52.0765 59.9712 52.0964 60.0036C52.1163 60.036 52.1425 60.0641 52.1734 60.0863C52.2043 60.1085 52.2393 60.1242 52.2764 60.1326C52.3134 60.1411 52.3518 60.142 52.3893 60.1354C52.4267 60.1287 52.4625 60.1147 52.4944 60.0941C52.5263 60.0735 52.5538 60.0467 52.5753 60.0152C56.277 54.8413 60.6935 53.8057 66.806 52.3749C67.5193 52.2095 68.2453 52.0383 69 51.8543C74.4078 50.5376 80.4961 48.2737 83.9211 42.5535C82.7143 46.8016 80.0296 50.549 72.3052 53.3136C65.9801 55.576 56.0944 57.3078 53.9033 64.3333L55.3512 64.9338C55.3512 64.9338 57.6821 60.3091 66.9315 59.0381C66.9315 59.0381 59.5879 61.1208 57.6807 66.0279C57.6807 66.0279 60.5052 67.8995 61.5993 70.5114C61.5993 70.5114 67.0713 67.9337 68.6248 65.5329C68.6248 65.5329 67.2825 69.1348 62.6221 71.8523L67.1812 76.6582L96.1391 69.8795C96.1391 69.8795 104.31 62.2819 94.7682 43.5264C94.7682 43.5264 102.6 35.6806 97.7639 26.504C97.7639 26.504 101.447 32.0673 105.782 32.4125L102.828 26.3114C102.828 26.3114 105.705 29.307 107.279 32.5266C107.279 32.5266 111.634 32.8348 113.872 32.1843C113.868 32.1871 113.502 29.1416 112.671 27.2942Z" fill="url(#paint19_linear_70_1297)"/>
<path d="M113.311 42.6876C117.636 53.0155 123.69 65.0266 107.361 68.0507L105.095 56.372L113.311 42.6876Z" fill="url(#paint20_linear_70_1297)"/>
<path d="M115.103 67.8824L114.9 72.6641C114.9 72.6641 112.741 73.4358 107.796 77.1062C101.391 76.8865 100.407 74.6341 90.9224 73.423L91.1934 67.5672C96.1262 65.7285 97.2032 60.3734 93.9993 48.9557C93.9993 48.9557 89.279 49.3066 88.9467 45.5621C88.5287 40.8546 91.8952 41.1142 94.7625 43.5322C94.7625 43.5322 102.591 35.6864 97.7581 26.514C97.8708 26.6824 101.506 32.0774 105.774 32.4183L102.821 26.32C102.909 26.4113 105.722 29.3599 107.27 32.5339C107.27 32.5339 110.836 32.7863 113.17 32.3527C114.972 41.9758 118.147 56.4605 107.995 58.3592C107.995 58.3592 108.093 60.4048 108.29 62.6386C108.433 64.2392 108.622 65.9339 108.861 67.0308L115.103 67.8824Z" fill="#F9CBA2"/>
<path d="M103.698 131.055H76.4961C79.3862 120.773 77.352 112.468 75.7971 104.379C74.2423 96.2911 73.2993 93.9659 73.2993 93.9659C70.9613 96.2483 64.7646 102.24 59.3525 107.15C59.1571 107.326 58.9602 107.499 58.7648 107.665C51.1487 114.128 43.38 112.144 38.1932 107.094C35.8566 104.812 32.6299 100.382 29.1792 94.7091C28.7703 94.0368 28.359 93.3478 27.9453 92.6421C27.4764 91.8395 27.0052 91.0169 26.5316 90.1743C25.3619 88.0945 24.1879 85.8948 23.0367 83.6324C22.313 82.2059 21.5998 80.7551 20.897 79.2801C19.7814 76.925 21.5503 75.5998 21.5503 75.5998C20.2451 77.9763 23.0396 79.7923 31.7512 75.1804C40.2289 70.6926 39.2503 67.1692 39.2503 67.1692L44.6296 78.4071L45.7123 80.6524L46.7109 82.728L49.2515 88.0288C56.13 81.7936 57.0216 79.6624 64.1541 72.8923C71.6089 65.8197 75.5846 65.7812 80.3634 66.4317C85.1421 67.0822 86.978 67.8082 91.189 67.5629C91.189 67.5629 98.9435 92.9146 102.28 108.462C104.4 118.312 103.698 131.055 103.698 131.055Z" fill="url(#paint21_linear_70_1297)"/>
<path d="M90.0763 131.055L76.4961 131.055C79.3862 120.773 77.352 112.468 75.7971 104.379C74.2423 96.2911 73.2993 93.9659 73.2993 93.9659C73.2993 93.9659 78.593 85.7877 84.1079 96.6291C88.2276 104.732 90.4672 121.386 90.0763 131.055Z" fill="url(#paint22_linear_70_1297)"/>
<path d="M58.7634 107.669C51.1473 114.132 43.3786 112.148 38.1919 107.098C35.8553 104.816 32.6285 100.386 29.1778 94.7133C28.7689 94.0409 28.3576 93.3519 27.9439 92.6463C27.4751 91.8437 27.0039 91.021 26.5303 90.1785C25.3605 88.0986 24.1865 85.899 23.0353 83.6365C22.3116 82.21 21.5984 80.7593 20.8956 79.2843C19.7801 76.9291 21.5489 75.6039 21.5489 75.6039C20.2437 77.9805 23.0382 79.7964 31.7498 75.1845C40.2275 70.6968 39.2489 67.1733 39.2489 67.1733L44.6282 78.4113L45.7123 80.6524L46.7109 82.728L49.2515 88.0288C49.2515 88.0288 56.2028 100.264 58.7634 107.669Z" fill="url(#paint23_linear_70_1297)"/>
<path d="M163.681 102.307L163.418 102.753C162.401 104.498 161.205 106.659 159.767 109.142C159.442 109.702 159.107 110.277 158.76 110.868C158.284 111.67 157.785 112.5 157.263 113.359C155.099 116.903 152.503 120.884 149.35 125.111C146.283 129.223 136.157 130.359 130.455 123.332C130.021 122.789 129.626 122.217 129.272 121.62C127.071 117.955 125.934 113.216 125.934 113.216C125.934 113.216 125.564 126.072 126.593 131.467L121.743 130.829C121.743 130.829 121.548 121.61 121.499 115.724C121.451 109.839 122.186 104.003 119.586 96.2055C116.987 88.4082 111.069 67.3203 111.069 67.3203C115.841 67.2961 124.404 67.6056 129.261 72.5741C133.503 76.9149 139.459 96.0557 140.898 100.83C141.041 101.305 141.139 101.638 141.184 101.799L141.216 101.911C141.509 101.367 141.8 100.818 142.088 100.267C142.477 99.5259 142.863 98.7793 143.246 98.0271C144.316 95.9349 145.366 93.798 146.396 91.6164C147.566 89.1438 148.712 86.6161 149.834 84.0332C149.811 84.1758 149.309 87.5138 151.797 90.7705C153.159 92.5522 155.558 94.5621 158.196 95.7475C160.487 96.7775 162.958 97.184 165.082 96.2782C167.455 95.2668 166.433 90.1571 160.777 88.053C160.841 87.8619 160.905 87.6721 160.966 87.4824C163.42 88.2656 167.1 90.7905 167.457 93.8503C167.718 96.1242 165.856 98.6262 163.681 102.307Z" fill="url(#paint24_linear_70_1297)"/>
<path d="M163.681 102.307L163.418 102.753C162.401 104.498 161.205 106.659 159.767 109.142C159.442 109.702 159.107 110.277 158.76 110.868C158.284 111.67 157.785 112.5 157.263 113.359C155.099 116.903 152.503 120.884 149.35 125.111C146.283 129.223 136.157 130.359 130.455 123.332C130.021 122.789 129.626 122.217 129.272 121.62C132.058 117.603 137.666 109.254 140.604 103.054C140.8 102.641 140.993 102.223 141.182 101.8L141.215 101.913C141.508 101.368 141.798 100.82 142.087 100.268C142.475 99.5274 142.862 98.7809 143.245 98.0286C144.315 95.9364 145.365 93.7995 146.395 91.6179C147.564 89.1453 148.71 86.6176 149.832 84.0347C149.81 84.1773 149.307 87.5153 151.795 90.772C153.158 92.5537 155.557 94.5636 158.195 95.7491C160.485 96.779 162.956 97.1855 165.08 96.2797C167.454 95.2683 166.431 90.1586 160.775 88.0545C160.839 87.8634 160.903 87.6737 160.965 87.4839C163.418 88.2671 167.099 90.792 167.455 93.8518C167.718 96.1242 165.856 98.6262 163.681 102.307Z" fill="url(#paint25_linear_70_1297)"/>
<path d="M161.487 127.636C143.246 134.949 123.481 138.591 106.691 138.592C89.8397 138.592 73.8814 136.294 59.6906 131.825L68.7731 127.636H136.596C139.768 128.727 143.111 128.587 145.694 127.636L161.487 127.636Z" fill="url(#paint26_linear_70_1297)"/>
<path d="M161.487 127.636C143.246 134.949 123.481 138.591 106.691 138.592C89.8397 138.592 73.8814 136.294 59.6906 131.825L68.7731 127.636H136.596C139.768 128.727 143.111 128.587 145.694 127.636L161.487 127.636Z" fill="#52BEB8"/>
<path d="M95.1933 45.9429C95.1516 45.9429 95.1109 45.9308 95.0761 45.908C95.0412 45.8852 95.0138 45.8527 94.9972 45.8145C94.9805 45.7764 94.9753 45.7342 94.9823 45.6931C94.9893 45.6521 95.0081 45.614 95.0364 45.5834C99.8722 40.3653 100.314 35.4967 99.8265 32.3298C99.3002 28.8934 97.6069 26.6581 97.5898 26.6353C97.5552 26.5903 97.5399 26.5333 97.5472 26.477C97.5546 26.4207 97.584 26.3696 97.629 26.335C97.6741 26.3004 97.731 26.2851 97.7873 26.2924C97.8436 26.2998 97.8947 26.3292 97.9293 26.3742C98.0021 26.4684 99.6996 28.7051 100.247 32.2443C100.751 35.5081 100.312 40.5179 95.3516 45.873C95.3316 45.8951 95.3071 45.9127 95.2798 45.9247C95.2526 45.9367 95.2231 45.9429 95.1933 45.9429Z" fill="#654B1E"/>
<path d="M99.1461 35.19C99.0824 35.19 99.0205 35.1686 98.9703 35.1293C98.9201 35.09 98.8846 35.035 98.8693 34.9731C98.854 34.9112 98.8599 34.8459 98.8861 34.7878C98.9122 34.7296 98.957 34.6819 99.0135 34.6522C100.925 33.6437 102.839 33.4511 104.55 34.0945C104.586 34.1066 104.62 34.126 104.649 34.1514C104.677 34.1769 104.701 34.2078 104.717 34.2425C104.734 34.2772 104.743 34.3148 104.745 34.3532C104.746 34.3916 104.74 34.4299 104.726 34.4658C104.713 34.5017 104.692 34.5346 104.666 34.5623C104.639 34.5901 104.607 34.6122 104.572 34.6273C104.537 34.6425 104.499 34.6503 104.46 34.6505C104.422 34.6506 104.384 34.6429 104.349 34.628C102.387 33.8905 100.508 34.5082 99.2788 35.1572C99.2379 35.1787 99.1924 35.19 99.1461 35.19Z" fill="#654B1E"/>
<path d="M108.605 34.5394C108.548 34.5395 108.493 34.5225 108.446 34.4907C108.398 34.4589 108.362 34.4137 108.34 34.361C108.319 34.3082 108.314 34.2503 108.326 34.1947C108.338 34.139 108.366 34.0882 108.407 34.0487C109.754 32.7477 112.046 32.7762 112.875 33.4296C112.934 33.4765 112.973 33.5451 112.981 33.6203C112.99 33.6954 112.969 33.771 112.922 33.8304C112.875 33.8898 112.806 33.9282 112.731 33.937C112.656 33.9458 112.58 33.9244 112.521 33.8775C111.933 33.4153 109.953 33.3411 108.802 34.4581C108.749 34.5096 108.679 34.5387 108.605 34.5394Z" fill="#654B1E"/>
<path d="M94.6526 45.9427C94.6063 45.9428 94.5612 45.9278 94.5243 45.8999C94.4986 45.88 91.9566 43.9799 90.1364 44.3736C90.082 44.3827 90.0263 44.3706 89.9807 44.3396C89.9351 44.3087 89.9032 44.2614 89.8916 44.2075C89.8801 44.1537 89.8897 44.0974 89.9185 44.0505C89.9474 44.0036 89.9932 43.9696 90.0465 43.9556C92.0578 43.5277 94.6726 45.4748 94.7824 45.559C94.8185 45.586 94.8451 45.6237 94.8584 45.6667C94.8718 45.7097 94.8712 45.7558 94.8568 45.7985C94.8425 45.8412 94.815 45.8782 94.7783 45.9044C94.7417 45.9305 94.6977 45.9444 94.6526 45.9441V45.9427Z" fill="#C98348"/>
<path d="M92.8667 47.3537C91.8682 47.3537 91.2976 46.7831 91.1007 46.1911C90.8511 45.4593 91.1107 44.4978 91.9752 44.1569C92.0276 44.1378 92.0854 44.1399 92.1363 44.1628C92.1872 44.1856 92.2271 44.2275 92.2476 44.2794C92.268 44.3313 92.2674 44.3892 92.2458 44.4406C92.2243 44.4921 92.1834 44.5331 92.1321 44.5549C91.5044 44.8017 91.3218 45.5106 91.5058 46.0527C91.7113 46.6576 92.3874 47.1711 93.667 46.8002C93.6944 46.791 93.7233 46.7875 93.7521 46.7898C93.7809 46.7921 93.8089 46.8002 93.8345 46.8136C93.86 46.827 93.8826 46.8455 93.9009 46.8678C93.9191 46.8902 93.9327 46.9161 93.9407 46.9438C93.9486 46.9715 93.951 47.0006 93.9474 47.0293C93.9439 47.0579 93.9346 47.0856 93.9201 47.1106C93.9055 47.1355 93.8861 47.1573 93.863 47.1746C93.8398 47.1918 93.8134 47.2042 93.7854 47.211C93.4874 47.3015 93.1781 47.3495 92.8667 47.3537Z" fill="#C98348"/>
<path d="M102.107 41.6429C102.517 41.6117 102.812 41.0909 102.765 40.4798C102.719 39.8686 102.349 39.3984 101.939 39.4296C101.529 39.4608 101.234 39.9816 101.281 40.5927C101.327 41.2039 101.697 41.6741 102.107 41.6429Z" fill="#654B1E"/>
<path d="M101.814 40.0285C101.786 40.0305 101.757 40.0269 101.731 40.0179C101.704 40.009 101.679 39.9949 101.658 39.9764C101.615 39.9391 101.589 39.8863 101.585 39.8295C101.581 39.7728 101.6 39.7168 101.637 39.6738C101.674 39.6309 101.727 39.6045 101.784 39.6006C102.212 39.5421 102.651 39.1298 102.597 38.6862C102.59 38.6294 102.606 38.5722 102.641 38.5271C102.676 38.4821 102.728 38.4528 102.785 38.4458C102.841 38.4388 102.898 38.4546 102.944 38.4898C102.989 38.525 103.018 38.5766 103.025 38.6334C103.113 39.3466 102.476 39.9372 101.847 40.0257L101.814 40.0285Z" fill="#654B1E"/>
<path d="M111.648 40.9384C112.058 40.9072 112.353 40.3865 112.306 39.7753C112.26 39.1642 111.89 38.694 111.48 38.7252C111.07 38.7564 110.775 39.2771 110.821 39.8883C110.868 40.4995 111.238 40.9696 111.648 40.9384Z" fill="#654B1E"/>
<path d="M111.349 39.3238C111.292 39.3278 111.236 39.3091 111.193 39.2717C111.15 39.2344 111.124 39.1816 111.12 39.1248C111.116 39.0681 111.134 39.0121 111.172 38.9691C111.209 38.9262 111.262 38.8998 111.319 38.8959C111.746 38.8374 112.186 38.4251 112.132 37.9815C112.128 37.9534 112.13 37.9249 112.138 37.8976C112.145 37.8703 112.158 37.8448 112.176 37.8224C112.193 37.8001 112.215 37.7815 112.239 37.7675C112.264 37.7536 112.291 37.7446 112.319 37.7411C112.347 37.7377 112.376 37.7398 112.403 37.7473C112.43 37.7549 112.456 37.7677 112.478 37.7851C112.501 37.8025 112.519 37.8242 112.533 37.8488C112.547 37.8735 112.556 37.9006 112.56 37.9287C112.648 38.6419 112.01 39.2325 111.381 39.321L111.349 39.3238Z" fill="#654B1E"/>
<path d="M108.518 46.9428C108.232 46.9414 107.947 46.9257 107.662 46.8957C107.606 46.8901 107.553 46.8621 107.517 46.8179C107.481 46.7738 107.464 46.7171 107.47 46.6604C107.475 46.6036 107.503 46.5514 107.548 46.5153C107.592 46.4792 107.648 46.4621 107.705 46.4678C109.1 46.6104 109.952 46.4236 110.169 45.9314C110.454 45.2781 109.657 44.0941 108.721 43.2624C107.551 42.2225 107.331 39.9601 108.25 38.4209C108.264 38.3967 108.284 38.3757 108.306 38.3588C108.329 38.342 108.354 38.3298 108.382 38.323C108.409 38.3161 108.437 38.3146 108.465 38.3187C108.493 38.3228 108.52 38.3323 108.544 38.3467C108.568 38.3612 108.589 38.3802 108.606 38.4028C108.623 38.4254 108.635 38.451 108.642 38.4783C108.649 38.5056 108.65 38.534 108.646 38.5618C108.642 38.5897 108.633 38.6164 108.618 38.6406C107.795 40.0186 107.976 42.0285 109.005 42.9429C109.791 43.6419 111.002 45.0941 110.561 46.104C110.317 46.6632 109.631 46.9428 108.518 46.9428Z" fill="#C98348"/>
<path d="M109.841 49.2694C109.841 49.2694 109.781 52.7201 107.685 52.9198C106.032 53.0781 104.187 51.432 102.835 49.4391C102.477 48.9116 102.154 48.3613 101.868 47.7915C104.373 48.8429 107.105 49.5033 109.219 49.3407C109.433 49.3321 109.641 49.3079 109.841 49.2694Z" fill="url(#paint27_linear_70_1297)"/>
<path d="M109.219 49.3465C108.933 49.8615 108.401 50.6674 108.103 50.7331C107.742 50.8101 105.09 50.502 102.835 49.4492C102.477 48.9217 102.154 48.3713 101.868 47.8016C104.373 48.8487 107.105 49.502 109.219 49.3465Z" fill="url(#paint28_linear_70_1297)"/>
<path d="M108.294 62.6286C99.5128 64.426 96.2832 50.6118 96.2832 50.6118C101.178 57.4333 104.621 58.7 107.999 58.3548C107.999 58.3548 108.09 60.3961 108.294 62.6286Z" fill="#E5AD83"/>
<path d="M26.0967 51.0013C26.0617 51.0013 26.0272 50.9927 25.9964 50.9762C25.9655 50.9598 25.9391 50.936 25.9195 50.907C25.9 50.878 25.8878 50.8447 25.8841 50.8099C25.8804 50.7751 25.8853 50.7399 25.8984 50.7075C27.3591 47.0414 27.8427 46.1527 28.1194 45.9458C30.2592 44.3424 31.1664 43.9758 31.2035 43.9601C31.2297 43.9498 31.2576 43.9446 31.2857 43.945C31.3138 43.9454 31.3416 43.9513 31.3674 43.9624C31.3933 43.9736 31.4166 43.9897 31.4363 44.0098C31.4559 44.03 31.4713 44.0538 31.4817 44.08C31.4921 44.1061 31.4972 44.134 31.4969 44.1622C31.4965 44.1903 31.4905 44.218 31.4794 44.2439C31.4683 44.2697 31.4522 44.2931 31.432 44.3127C31.4118 44.3323 31.388 44.3477 31.3619 44.3581C31.3533 44.3581 30.4618 44.729 28.3762 46.2882C28.011 46.5606 26.72 49.8017 26.2964 50.8658C26.2806 50.9059 26.2531 50.9402 26.2175 50.9644C26.1818 50.9886 26.1397 51.0015 26.0967 51.0013Z" fill="#C98348"/>
<path d="M18.462 51.9028H18.4406C18.4126 51.9002 18.3854 51.892 18.3605 51.8788C18.3357 51.8655 18.3137 51.8476 18.2958 51.8258C18.2779 51.8041 18.2645 51.779 18.2563 51.7521C18.2481 51.7252 18.2453 51.6969 18.2481 51.6689C18.5105 48.9999 19.1539 45.3923 19.3507 44.9644C19.5333 44.5721 20.1667 43.9515 20.238 43.8816C20.2579 43.861 20.2818 43.8446 20.3082 43.8333C20.3346 43.8221 20.3629 43.8163 20.3916 43.8162C20.4203 43.8161 20.4487 43.8219 20.4751 43.833C20.5016 43.8441 20.5255 43.8605 20.5455 43.881C20.5655 43.9016 20.5811 43.926 20.5915 43.9527C20.6019 43.9794 20.6068 44.008 20.6059 44.0367C20.6051 44.0653 20.5984 44.0935 20.5864 44.1196C20.5745 44.1456 20.5574 44.169 20.5362 44.1883C20.3578 44.3624 19.8657 44.8731 19.7387 45.1455C19.5961 45.4565 18.947 48.9229 18.6732 51.7074C18.6685 51.7604 18.6444 51.8098 18.6053 51.8459C18.5663 51.882 18.5152 51.9023 18.462 51.9028Z" fill="#C98348"/>
<path d="M73.2979 94.1827C73.2558 94.1827 73.2146 94.1702 73.1795 94.1469C73.1445 94.1236 73.1171 94.0904 73.1008 94.0516C73.0845 94.0127 73.08 93.9699 73.0879 93.9286C73.0958 93.8872 73.1158 93.8491 73.1453 93.819L76.1067 90.7991C76.1261 90.7779 76.1496 90.7609 76.1757 90.749C76.2018 90.7371 76.2301 90.7305 76.2588 90.7298C76.2875 90.729 76.316 90.7341 76.3427 90.7446C76.3695 90.7551 76.3938 90.7709 76.4143 90.791C76.4348 90.8111 76.451 90.8351 76.462 90.8616C76.473 90.8881 76.4786 90.9166 76.4784 90.9453C76.4782 90.974 76.4722 91.0024 76.4608 91.0287C76.4493 91.0551 76.4328 91.0789 76.412 91.0987L73.4505 94.1186C73.4306 94.1389 73.4069 94.155 73.3807 94.166C73.3545 94.177 73.3263 94.1827 73.2979 94.1827Z" fill="#52BEB8"/>
<path d="M52.5425 94.5236C52.5035 94.5237 52.4652 94.5131 52.4317 94.493C52.3983 94.4729 52.371 94.444 52.3528 94.4095L49.0576 88.1329C49.0313 88.0826 49.0261 88.0239 49.043 87.9697C49.06 87.9155 49.0978 87.8703 49.1482 87.844C49.1985 87.8177 49.2572 87.8125 49.3114 87.8295C49.3655 87.8465 49.4107 87.8843 49.437 87.9346L52.7322 94.2112C52.7495 94.2439 52.758 94.2804 52.7569 94.3173C52.7558 94.3542 52.7452 94.3902 52.7261 94.4218C52.707 94.4533 52.6801 94.4795 52.6479 94.4976C52.6157 94.5157 52.5794 94.5251 52.5425 94.525V94.5236Z" fill="#52BEB8"/>
<path d="M125.934 113.435C125.878 113.435 125.823 113.412 125.783 113.372C125.743 113.332 125.72 113.278 125.72 113.221C125.72 102.95 123.163 95.1999 120.688 87.7107C120.419 86.8967 120.153 86.0883 119.89 85.2857C119.875 85.2325 119.881 85.1754 119.907 85.1265C119.933 85.0776 119.977 85.0407 120.03 85.0236C120.082 85.0064 120.14 85.0103 120.189 85.0344C120.239 85.0586 120.278 85.1011 120.297 85.153C120.558 85.9576 120.824 86.7659 121.094 87.5781C123.579 95.1 126.15 102.877 126.148 113.222C126.148 113.279 126.125 113.333 126.085 113.373C126.045 113.412 125.991 113.435 125.934 113.435Z" fill="#52BEB8"/>
<path d="M138.351 107.756C138.294 107.756 138.239 107.733 138.199 107.693C138.159 107.653 138.137 107.599 138.137 107.542C138.137 107.288 139.881 103.976 140.419 102.964L140.522 102.773C140.694 102.449 140.866 102.128 141.031 101.822C141.058 101.772 141.104 101.734 141.158 101.718C141.213 101.702 141.271 101.708 141.321 101.735C141.371 101.762 141.408 101.808 141.425 101.863C141.441 101.917 141.435 101.976 141.408 102.026C141.242 102.332 141.072 102.652 140.9 102.974L140.798 103.165C139.56 105.505 138.636 107.352 138.567 107.573C138.56 107.625 138.534 107.672 138.494 107.706C138.454 107.739 138.403 107.757 138.351 107.756Z" fill="#52BEB8"/>
<path d="M44.6369 78.4114C43.6554 81.7351 41.2732 85.0617 36.9224 88.0317C33.6543 90.2642 30.1936 90.742 26.5303 90.1714C25.3606 88.0916 24.1866 85.8991 23.0354 83.6295C26.7443 84.397 30.4004 83.8777 34.9552 81.0818C39.4843 78.3016 41.0392 75.4471 41.5399 71.9394L44.6369 78.4114Z" fill="#DDF1F3"/>
<path d="M46.7067 82.7308C45.5237 86.6147 43.0054 89.9551 39.5971 92.1613C36.0308 94.4737 32.6358 94.9487 29.1836 94.7133C28.7747 94.0419 28.3634 93.3529 27.9497 92.6464C32.5145 92.9502 35.4545 91.9103 38.7298 89.5466C41.4644 87.5723 44.1505 84.755 45.7196 80.6552L46.7067 82.7308Z" fill="#DDF1F3"/>
<path d="M163.681 102.307L163.418 102.753C162.401 104.498 161.205 106.659 159.767 109.142C151.955 109.164 145.126 105.493 143.245 98.0329C144.315 95.9407 145.365 93.8038 146.395 91.6222C148.472 97.5993 156.205 102.8 163.681 102.307Z" fill="#DDF1F3"/>
<path d="M158.76 110.868C158.284 111.67 157.785 112.5 157.263 113.359C150.201 115.607 143.477 111.813 140.605 103.058C140.811 102.67 141.017 102.284 141.215 101.917C141.507 101.372 141.798 100.824 142.087 100.273C143.255 105.486 148.479 112.76 158.76 110.868Z" fill="#DDF1F3"/>
<path d="M176.401 80.3785C176.356 80.3786 176.313 80.3648 176.277 80.339C176.24 80.3133 176.213 80.2768 176.198 80.2347C176.184 80.1926 176.182 80.147 176.195 80.1042C176.208 80.0615 176.233 80.0237 176.268 79.9962C177.599 78.9492 178.723 77.5212 179.204 76.6382C179.231 76.5883 179.277 76.5511 179.331 76.535C179.386 76.5188 179.444 76.5249 179.494 76.5519C179.544 76.579 179.581 76.6247 179.598 76.6792C179.614 76.7336 179.608 76.7923 179.581 76.8422C179.08 77.7637 177.913 79.2487 176.534 80.3329C176.496 80.3626 176.449 80.3787 176.401 80.3785Z" fill="#C98348"/>
<path d="M166.888 81.7707C166.837 81.771 166.788 81.7531 166.749 81.7204C166.71 81.6877 166.684 81.6423 166.676 81.5922C166.667 81.5421 166.677 81.4907 166.703 81.4471C166.729 81.4035 166.77 81.3706 166.818 81.3542C168.194 80.8735 169.702 79.8678 170.849 78.6624C170.868 78.6412 170.892 78.6241 170.917 78.612C170.943 78.6 170.971 78.5932 171 78.5921C171.028 78.5911 171.057 78.5958 171.084 78.6059C171.11 78.6161 171.135 78.6314 171.155 78.6512C171.176 78.6709 171.193 78.6945 171.204 78.7207C171.215 78.7469 171.221 78.7752 171.222 78.8037C171.222 78.8323 171.217 78.8607 171.206 78.8871C171.195 78.9135 171.179 78.9375 171.159 78.9577C169.968 80.2102 168.397 81.2572 166.959 81.7593C166.936 81.7672 166.912 81.771 166.888 81.7707Z" fill="#C98348"/>
<path d="M189.586 66.8568C189.284 67.6 188.943 68.3266 188.563 69.0336C179.85 70.4401 165.407 69.5201 155.937 65.3661C155.72 64.6799 155.549 63.9798 155.427 63.2706C165.677 66.8154 173.933 69.483 189.586 66.8568Z" fill="url(#paint29_linear_70_1297)"/>
<path d="M189.05 70.5528C177.768 70.5528 179.108 65.3218 172.863 64.7855C174.942 63.6257 177.746 64.7855 180.238 66.5643C182.73 68.3432 189.606 70.2575 191.687 67.8096C193.054 66.2006 192.466 64.6713 191.9 63.8155C192.347 63.6237 192.772 63.3846 193.168 63.1022C195.489 65.523 194.405 70.5528 189.05 70.5528Z" fill="url(#paint30_linear_70_1297)"/>
<path d="M188.355 70.0563C187.966 70.0563 187.586 70.0349 187.23 69.9992C185.007 69.7587 182.857 69.0634 180.914 67.9565C177.693 66.0478 175.564 64.7854 172.87 64.928C172.852 64.929 172.833 64.9263 172.815 64.92C172.798 64.9137 172.781 64.9039 172.767 64.8913C172.754 64.8788 172.742 64.8636 172.734 64.8466C172.726 64.8296 172.722 64.8113 172.721 64.7925C172.72 64.7738 172.722 64.755 172.729 64.7374C172.735 64.7197 172.745 64.7034 172.757 64.6895C172.77 64.6756 172.785 64.6643 172.802 64.6563C172.819 64.6482 172.837 64.6437 172.856 64.6427C175.636 64.5001 177.795 65.7754 181.06 67.7111C184.508 69.7539 190.508 70.9022 192.446 68.1305C193.81 66.1791 193.057 64.4216 192.486 63.5372C192.476 63.5215 192.469 63.5039 192.466 63.4854C192.462 63.467 192.462 63.448 192.466 63.4297C192.47 63.4114 192.478 63.394 192.488 63.3785C192.499 63.3631 192.513 63.3498 192.528 63.3396C192.544 63.3294 192.562 63.3224 192.58 63.319C192.599 63.3156 192.617 63.3158 192.636 63.3198C192.654 63.3237 192.672 63.3311 192.687 63.3418C192.702 63.3524 192.716 63.366 192.726 63.3817C193.335 64.3203 194.14 66.2062 192.68 68.2946C191.707 69.6854 189.951 70.0563 188.355 70.0563Z" fill="#DD9127"/>
<path d="M197.125 49.0484C197.389 50.0284 201.861 47.144 200.977 45.9658C199.902 44.5193 196.85 48.0228 197.125 49.0484Z" fill="url(#paint31_linear_70_1297)"/>
<path d="M184.391 34.9887C183.726 32.5779 184.425 29.2257 186.531 29.4781C188.18 29.675 184.588 31.7805 184.391 34.9887Z" fill="url(#paint32_linear_70_1297)"/>
<path d="M158.48 61.2678C158.463 61.2679 158.446 61.265 158.43 61.2592C158.333 61.2236 156.052 60.3619 154.864 59.2621C154.848 59.2499 154.836 59.2347 154.827 59.2174C154.818 59.2001 154.812 59.1812 154.811 59.1617C154.809 59.1423 154.812 59.1227 154.818 59.1043C154.825 59.0859 154.835 59.0689 154.848 59.0546C154.861 59.0402 154.877 59.0287 154.895 59.0208C154.913 59.0128 154.932 59.0086 154.952 59.0084C154.971 59.0082 154.99 59.012 155.008 59.0196C155.026 59.0272 155.043 59.0383 155.056 59.0524C156.197 60.1095 158.507 60.9782 158.53 60.9868C158.561 60.9982 158.588 61.0205 158.605 61.0497C158.621 61.0789 158.627 61.1131 158.621 61.1462C158.615 61.1793 158.598 61.2092 158.572 61.2307C158.546 61.2522 158.513 61.2638 158.48 61.2635V61.2678Z" fill="#654B1E"/>
<path d="M158.66 51.2138C157.858 52.4506 157.567 55.5047 158.741 57.8071C159.915 60.1094 163.179 62.4132 166.259 59.3206L158.66 51.2138Z" fill="url(#paint33_linear_70_1297)"/>
<path d="M158.66 51.2138C159.516 50.3878 161.414 50.6873 164.033 52.9683C166.652 55.2492 167.99 58.5758 165.4 60.0237C164.159 60.717 161.294 59.2434 159.758 57.1707C158.086 54.9211 157.995 51.8529 158.66 51.2138Z" fill="url(#paint34_linear_70_1297)"/>
<path d="M161.584 54.1452C162.638 52.9826 165.608 54.6816 165.739 56.5859C165.842 58.0624 164.072 59.0623 162.421 57.6358C161.393 56.7457 160.99 54.8028 161.584 54.1452Z" fill="url(#paint35_linear_70_1297)"/>
<path d="M163.902 44.0414C163.458 43.0914 162.381 42.4538 161.905 42.7804C161.544 43.0258 161.659 44.2897 161.846 44.8517C162.132 45.7076 163.147 46.2126 163.738 45.9344C164.143 45.7418 164.21 44.7048 163.902 44.0414ZM163.487 45.2625C163.209 45.3923 162.732 45.157 162.597 44.7533C162.51 44.4894 162.454 43.8974 162.625 43.779C162.851 43.6249 163.357 43.9216 163.565 44.3724C163.711 44.6834 163.678 45.1727 163.487 45.2625Z" fill="url(#paint36_linear_70_1297)"/>
<path d="M156.442 39.4409C155.563 38.8703 154.31 38.9045 154.078 39.4409C153.902 39.8417 154.673 40.8502 155.131 41.2268C155.83 41.7974 156.955 41.6876 157.307 41.1384C157.55 40.7547 157.056 39.8374 156.442 39.4409ZM156.74 40.6948C156.574 40.9544 156.045 41.0086 155.717 40.7375C155.501 40.5592 155.139 40.0856 155.222 39.8973C155.33 39.6477 155.919 39.632 156.333 39.8973C156.621 40.0871 156.854 40.5179 156.734 40.6948H156.74Z" fill="url(#paint37_linear_70_1297)"/>
<path d="M165.567 27.1317C165.259 26.7294 164.19 26.9619 163.561 27.6281C163.123 28.0931 162.895 28.9733 163.179 29.2443C163.594 29.6366 164.572 29.5011 165.046 28.8663C165.356 28.4512 165.799 27.4341 165.567 27.1317ZM164.447 28.5767C164.226 28.8748 163.765 28.939 163.57 28.755C163.435 28.6281 163.544 28.2129 163.749 27.9947C164.045 27.6823 164.548 27.5667 164.692 27.7607C164.802 27.9034 164.594 28.3813 164.447 28.5767Z" fill="url(#paint38_linear_70_1297)"/>
<path d="M170.806 35.2556C170.599 34.5424 169.768 33.036 168.97 33.287C168.455 33.4482 168.162 34.7563 168.383 35.7834C168.604 36.8105 169.307 37.4724 170.086 37.6193C170.865 37.7663 171.012 35.9746 170.806 35.2556ZM170 36.6593C169.797 36.6114 169.613 36.5047 169.471 36.3524C169.328 36.2001 169.234 36.0091 169.2 35.8034C169.096 35.3212 169.234 34.7064 169.475 34.6308C169.85 34.5124 170.241 35.2171 170.338 35.5552C170.435 35.8933 170.368 36.7278 170 36.6593Z" fill="url(#paint39_linear_70_1297)"/>
<path d="M160.108 46.0997C159.528 45.9171 158.924 47.0055 158.774 47.5262C158.624 48.0468 158.731 49.3507 159.296 49.238C159.861 49.1253 160.373 48.6517 160.534 47.9042C160.695 47.1567 160.48 46.2166 160.108 46.0997ZM159.938 47.9213C159.914 48.0715 159.846 48.2111 159.743 48.3226C159.639 48.4341 159.505 48.5124 159.357 48.5475C159.092 48.5975 159.041 47.9869 159.112 47.7416C159.183 47.4962 159.466 46.9841 159.738 47.0697C159.914 47.1296 160.015 47.5704 159.938 47.9213Z" fill="url(#paint40_linear_70_1297)"/>
<path d="M108.584 49.6546C106.648 49.6546 104.205 49.084 101.757 48.0612C101.687 48.0318 101.632 47.976 101.603 47.9059C101.574 47.8358 101.575 47.7572 101.604 47.6874C101.633 47.6176 101.689 47.5623 101.759 47.5337C101.829 47.5051 101.908 47.5055 101.978 47.5348C104.63 48.6474 107.256 49.2038 109.197 49.0626C109.4 49.0497 109.6 49.0255 109.794 48.9941C109.831 48.988 109.868 48.9893 109.905 48.9978C109.941 49.0063 109.976 49.022 110.006 49.0438C110.037 49.0657 110.063 49.0933 110.082 49.1252C110.102 49.157 110.116 49.1925 110.122 49.2295C110.128 49.2664 110.126 49.3043 110.118 49.3408C110.109 49.3773 110.094 49.4118 110.072 49.4422C110.05 49.4727 110.022 49.4986 109.991 49.5184C109.959 49.5381 109.923 49.5515 109.886 49.5576C109.675 49.5918 109.458 49.6175 109.237 49.6317C109.016 49.646 108.804 49.6546 108.584 49.6546Z" fill="#C98348"/>
<defs>
<linearGradient id="paint0_linear_70_1297" x1="112.593" y1="84.0169" x2="103.456" y2="16.0781" gradientUnits="userSpaceOnUse">
<stop stop-color="#C98348"/>
<stop offset="1" stop-color="#DD9127"/>
</linearGradient>
<linearGradient id="paint1_linear_70_1297" x1="61.1563" y1="90.8188" x2="90.7781" y2="-51.915" gradientUnits="userSpaceOnUse">
<stop stop-color="#51823B"/>
<stop offset="1" stop-color="#AAC76F"/>
</linearGradient>
<linearGradient id="paint2_linear_70_1297" x1="110.384" y1="122.759" x2="173.109" y2="484.606" gradientUnits="userSpaceOnUse">
<stop stop-color="#E94E4E"/>
<stop offset="1" stop-color="#D33332"/>
</linearGradient>
<linearGradient id="paint3_linear_70_1297" x1="102.869" y1="-86.7212" x2="115.712" y2="89.9001" gradientUnits="userSpaceOnUse">
<stop stop-color="#E94E4E"/>
<stop offset="1" stop-color="#D33332"/>
</linearGradient>
<linearGradient id="paint4_linear_70_1297" x1="138.347" y1="70.0884" x2="94.5843" y2="-26.2565" gradientUnits="userSpaceOnUse">
<stop stop-color="#51823B"/>
<stop offset="1" stop-color="#AAC76F"/>
</linearGradient>
<linearGradient id="paint5_linear_70_1297" x1="75.6076" y1="72.8213" x2="99.2371" y2="32.2481" gradientUnits="userSpaceOnUse">
<stop stop-color="#C98348"/>
<stop offset="1" stop-color="#DD9127"/>
</linearGradient>
<linearGradient id="paint6_linear_70_1297" x1="-0.386929" y1="121.895" x2="11.9615" y2="54.5452" gradientUnits="userSpaceOnUse">
<stop stop-color="#ECDE74"/>
<stop offset="1" stop-color="#F3CE63"/>
</linearGradient>
<linearGradient id="paint7_linear_70_1297" x1="103.805" y1="-78.8894" x2="110.769" y2="51.407" gradientUnits="userSpaceOnUse">
<stop stop-color="#ECDE74"/>
<stop offset="1" stop-color="#F3CE63"/>
</linearGradient>
<linearGradient id="paint8_linear_70_1297" x1="-18.3764" y1="82.7348" x2="-315.514" y2="182.873" gradientUnits="userSpaceOnUse">
<stop stop-color="#ECDE74"/>
<stop offset="1" stop-color="#F3CE63"/>
</linearGradient>
<linearGradient id="paint9_linear_70_1297" x1="92.4045" y1="50.0768" x2="133.167" y2="163.966" gradientUnits="userSpaceOnUse">
<stop stop-color="#FFF1E0"/>
<stop offset="1" stop-color="#ECDE74"/>
</linearGradient>
<linearGradient id="paint10_linear_70_1297" x1="93.3723" y1="42.0802" x2="152.126" y2="313.065" gradientUnits="userSpaceOnUse">
<stop stop-color="#F3CE63"/>
<stop offset="1" stop-color="#D2A651"/>
</linearGradient>
<linearGradient id="paint11_linear_70_1297" x1="119.881" y1="113.33" x2="105.705" y2="73.5553" gradientUnits="userSpaceOnUse">
<stop stop-color="#F9CBA2"/>
<stop offset="1" stop-color="#FCD7BA"/>
</linearGradient>
<linearGradient id="paint12_linear_70_1297" x1="212.367" y1="24.5916" x2="131.738" y2="121.91" gradientUnits="userSpaceOnUse">
<stop stop-color="#45A5A5"/>
<stop offset="1" stop-color="#308B85"/>
</linearGradient>
<linearGradient id="paint13_linear_70_1297" x1="108.516" y1="39.7337" x2="162.591" y2="95.7716" gradientUnits="userSpaceOnUse">
<stop stop-color="white"/>
<stop offset="1" stop-color="#DDF1F3"/>
</linearGradient>
<linearGradient id="paint14_linear_70_1297" x1="97.3508" y1="-29.2823" x2="101.814" y2="51.9296" gradientUnits="userSpaceOnUse">
<stop stop-color="#E8E8EB"/>
<stop offset="1" stop-color="#D3D3D3"/>
</linearGradient>
<linearGradient id="paint15_linear_70_1297" x1="96.0984" y1="-46.9586" x2="100.926" y2="36.6256" gradientUnits="userSpaceOnUse">
<stop stop-color="#E8E8EB"/>
<stop offset="1" stop-color="#D3D3D3"/>
</linearGradient>
<linearGradient id="paint16_linear_70_1297" x1="101.984" y1="40.4183" x2="115.526" y2="99.9012" gradientUnits="userSpaceOnUse">
<stop stop-color="#45A5A5"/>
<stop offset="1" stop-color="#308B85"/>
</linearGradient>
<linearGradient id="paint17_linear_70_1297" x1="254.888" y1="13.0282" x2="211.957" y2="161.535" gradientUnits="userSpaceOnUse">
<stop stop-color="#F3CE63"/>
<stop offset="1" stop-color="#D2A651"/>
</linearGradient>
<linearGradient id="paint18_linear_70_1297" x1="-402.737" y1="-121.824" x2="-370.775" y2="86.9347" gradientUnits="userSpaceOnUse">
<stop offset="0.04" stop-color="#654B1E"/>
<stop offset="1" stop-color="#2E1D12"/>
</linearGradient>
<linearGradient id="paint19_linear_70_1297" x1="88.1621" y1="40.6197" x2="118.353" y2="110.952" gradientUnits="userSpaceOnUse">
<stop offset="0.04" stop-color="#654B1E"/>
<stop offset="1" stop-color="#2E1D12"/>
</linearGradient>
<linearGradient id="paint20_linear_70_1297" x1="85.6065" y1="50.1365" x2="92.1095" y2="132.98" gradientUnits="userSpaceOnUse">
<stop offset="0.04" stop-color="#654B1E"/>
<stop offset="1" stop-color="#2E1D12"/>
</linearGradient>
<linearGradient id="paint21_linear_70_1297" x1="89.6348" y1="33.4092" x2="174.715" y2="96.4463" gradientUnits="userSpaceOnUse">
<stop stop-color="#52BEB8"/>
<stop offset="1" stop-color="#308B85"/>
</linearGradient>
<linearGradient id="paint22_linear_70_1297" x1="-506.096" y1="122.207" x2="-228.468" y2="-191.222" gradientUnits="userSpaceOnUse">
<stop stop-color="#52BEB8"/>
<stop offset="1" stop-color="#308B85"/>
</linearGradient>
<linearGradient id="paint23_linear_70_1297" x1="77.0473" y1="97.5341" x2="137.737" y2="-31.0014" gradientUnits="userSpaceOnUse">
<stop stop-color="#52BEB8"/>
<stop offset="1" stop-color="#308B85"/>
</linearGradient>
<linearGradient id="paint24_linear_70_1297" x1="123.701" y1="29.46" x2="80.3858" y2="117.087" gradientUnits="userSpaceOnUse">
<stop stop-color="#52BEB8"/>
<stop offset="1" stop-color="#308B85"/>
</linearGradient>
<linearGradient id="paint25_linear_70_1297" x1="134.293" y1="81.5941" x2="79.8685" y2="23.6866" gradientUnits="userSpaceOnUse">
<stop stop-color="#52BEB8"/>
<stop offset="1" stop-color="#308B85"/>
</linearGradient>
<linearGradient id="paint26_linear_70_1297" x1="107.498" y1="3.42827" x2="107.498" y2="131.086" gradientUnits="userSpaceOnUse">
<stop stop-color="white"/>
<stop offset="1" stop-color="#DDF1F3"/>
</linearGradient>
<linearGradient id="paint27_linear_70_1297" x1="154.682" y1="193.977" x2="121.862" y2="73.0991" gradientUnits="userSpaceOnUse">
<stop stop-color="#E94E4E"/>
<stop offset="1" stop-color="#D33332"/>
</linearGradient>
<linearGradient id="paint28_linear_70_1297" x1="216.21" y1="-16.5274" x2="-159.152" y2="82.5392" gradientUnits="userSpaceOnUse">
<stop stop-color="white"/>
<stop offset="1" stop-color="#DDF1F3"/>
</linearGradient>
<linearGradient id="paint29_linear_70_1297" x1="107.5" y1="-42.9645" x2="107.5" y2="185.993" gradientUnits="userSpaceOnUse">
<stop stop-color="#E8E8EB"/>
<stop offset="1" stop-color="#D3D3D3"/>
</linearGradient>
<linearGradient id="paint30_linear_70_1297" x1="271.838" y1="325.16" x2="489.794" y2="440.195" gradientUnits="userSpaceOnUse">
<stop stop-color="#ECDE74"/>
<stop offset="1" stop-color="#F3CE63"/>
</linearGradient>
<linearGradient id="paint31_linear_70_1297" x1="111.934" y1="170.859" x2="108.613" y2="24.7744" gradientUnits="userSpaceOnUse">
<stop stop-color="#C98348"/>
<stop offset="1" stop-color="#DD9127"/>
</linearGradient>
<linearGradient id="paint32_linear_70_1297" x1="118.903" y1="126.352" x2="117.266" y2="27.493" gradientUnits="userSpaceOnUse">
<stop stop-color="#C98348"/>
<stop offset="1" stop-color="#DD9127"/>
</linearGradient>
<linearGradient id="paint33_linear_70_1297" x1="111.921" y1="24.2741" x2="108.233" y2="171.791" gradientUnits="userSpaceOnUse">
<stop stop-color="#FFF1E0"/>
<stop offset="1" stop-color="#ECDE74"/>
</linearGradient>
<linearGradient id="paint34_linear_70_1297" x1="163.356" y1="278.088" x2="186.851" y2="537.749" gradientUnits="userSpaceOnUse">
<stop stop-color="#FFF1E0"/>
<stop offset="1" stop-color="#ECDE74"/>
</linearGradient>
<linearGradient id="paint35_linear_70_1297" x1="107.55" y1="66.4761" x2="105.023" y2="260.664" gradientUnits="userSpaceOnUse">
<stop stop-color="#F3CE63"/>
<stop offset="1" stop-color="#D2A651"/>
</linearGradient>
<linearGradient id="paint36_linear_70_1297" x1="-412.738" y1="-640.716" x2="-354.741" y2="-281.975" gradientUnits="userSpaceOnUse">
<stop stop-color="#DBE8C4"/>
<stop offset="1" stop-color="#AAC76F"/>
</linearGradient>
<linearGradient id="paint37_linear_70_1297" x1="-165.924" y1="-675.97" x2="-65.8593" y2="-282.195" gradientUnits="userSpaceOnUse">
<stop stop-color="#DBE8C4"/>
<stop offset="1" stop-color="#AAC76F"/>
</linearGradient>
<linearGradient id="paint38_linear_70_1297" x1="829.462" y1="-445.416" x2="571.95" y2="-19.243" gradientUnits="userSpaceOnUse">
<stop stop-color="#DBE8C4"/>
<stop offset="1" stop-color="#AAC76F"/>
</linearGradient>
<linearGradient id="paint39_linear_70_1297" x1="807.771" y1="-474.599" x2="755.899" y2="-195.945" gradientUnits="userSpaceOnUse">
<stop stop-color="#DBE8C4"/>
<stop offset="1" stop-color="#AAC76F"/>
</linearGradient>
<linearGradient id="paint40_linear_70_1297" x1="-423.348" y1="-536.207" x2="-382.32" y2="-214.022" gradientUnits="userSpaceOnUse">
<stop stop-color="#DBE8C4"/>
<stop offset="1" stop-color="#AAC76F"/>
</linearGradient>
</defs>
</svg>
